<svg width="24" height="24" viewBox="0 0 24 24" fill="none" xmlns="http://www.w3.org/2000/svg">
    <path fill-rule="evenodd" clip-rule="evenodd" d="M12 0a.997.997 0 0 0-.707.293l-3 3a.999.999 0 1 0 1.414 1.414L11 3.414V9a1 1 0 0 0 2 0V3.414l1.293 1.293a.999.999 0 1 0 1.414-1.414l-3-3A.997.997 0 0 0 12 0zM0 12c0 .276.112.526.293.707l3 3a.999.999 0 1 0 1.414-1.414L3.414 13H9a1 1 0 0 0 0-2H3.414l1.293-1.293a.999.999 0 1 0-1.414-1.414l-3 3A.997.997 0 0 0 0 12zm24 0a.997.997 0 0 0-.293-.707l-3-3a.999.999 0 1 0-1.414 1.414L20.586 11H15a1 1 0 0 0 0 2h5.586l-1.293 1.293a.999.999 0 1 0 1.414 1.414l3-3A.997.997 0 0 0 24 12zM12.707 23.707a.997.997 0 0 1-1.414 0l-3-3a.999.999 0 1 1 1.414-1.414L11 20.586V15a1 1 0 0 1 2 0v5.586l1.293-1.293a.999.999 0 1 1 1.414 1.414l-3 3z" fill="#0042B3"/>
</svg>
