<?xml version="1.0" encoding="UTF-8"?>
<svg width="365px" height="340px" viewBox="0 0 365 340" version="1.1" xmlns="http://www.w3.org/2000/svg" xmlns:xlink="http://www.w3.org/1999/xlink">
    <!-- Generator: Sketch 58 (84663) - https://sketch.com -->
    <title>Artboard</title>
    <desc>Created with Sketch.</desc>
    <defs>
        <linearGradient x1="17.3765518%" y1="-6.52700416%" x2="82.6452164%" y2="106.515643%" id="linearGradient-1">
            <stop stop-color="#5A62C3" offset="0%"></stop>
            <stop stop-color="#4D55BD" offset="50%"></stop>
            <stop stop-color="#3940AB" offset="100%"></stop>
        </linearGradient>
    </defs>
    <g id="Artboard" stroke="none" stroke-width="1" fill="none" fill-rule="evenodd">
        <g id="msteams" transform="translate(-1.000000, 0.000000)" fill-rule="nonzero">
            <path d="M255.09,127.56 L349.37,127.56 C358.28,127.56 365.5,134.78 365.5,143.69 L365.5,229.57 C365.5,262.31 338.96,288.84 306.23,288.84 L305.95,288.84 C273.21,288.84 246.66998,262.31 246.66998,229.57 L246.66998,229.56 L246.66998,135.98 C246.66,131.33 250.44,127.56 255.09,127.56 Z" id="Path" fill="#5059C9"></path>
            <circle id="Oval" fill="#5059C9" cx="318.81" cy="72.38" r="38.2"></circle>
            <path d="M199.98,0.23 C230.45,0.23 255.15,24.93 255.15,55.4 C255.15,85.87 230.45,110.57 199.98,110.57 C169.51,110.57 144.81,85.87 144.81,55.4 C144.81,24.93 169.5,0.23 199.98,0.23" id="Path" fill="#7B83EB"></path>
            <path d="M273.55,127.56 L117.92,127.56 C109.12,127.78 102.16,135.08 102.36,143.88 L102.36,241.83 C101.13,294.65 142.92,338.48 195.73,339.77 C248.55,338.48 290.33,294.65 289.1,241.83 L289.1,143.88 C289.31,135.08 282.35,127.78 273.55,127.56" id="Path" fill="#7B83EB"></path>
            <path d="M204.22,127.56 L195.73,127.56 L195.73,256.33 L195.73,256.33 L195.73,273.31 C195.73,275.32 195.33,277.31 194.54,279.17 L194.54,279.17 L194.54,279.17 C200.36,276.77 204.17,271.12 204.22,264.82 L204.22,127.56" id="Path" fill="#6E76D3"></path>
            <path d="M194.54,279.16 C192.69,279.94 190.7,280.35 188.68,280.35 L109.82,280.35 C111.01,283.24 112.37,286.04 113.81,288.84 L180.19,288.84 C186.49,288.8 192.15,284.98 194.54,279.16 M106.86,271.86 C107.71,274.75 108.64,277.46 109.83,280.35 C108.73,277.55 107.71,274.75 106.86,271.86 M102.36,242.05 C102.39,252.15 103.91,262.2 106.86,271.86 C103.91,262.2 102.4,252.15 102.36,242.05" id="Shape" fill="#6269BC"></path>
            <path d="M102.36,143.87 L102.36,241.81 C102.36,241.82 102.36,241.83 102.36,241.83 C102.36,241.83 102.36,241.83 102.36,241.82 L102.36,143.87 C102.36,143.88 102.36,143.88 102.36,143.87 M117.89,127.56 L117.89,127.56 C109.23,127.77 102.36,134.86 102.35,143.47 C102.35,143.51 102.35,143.56 102.35,143.6 C102.35,143.56 102.35,143.53 102.35,143.49 C102.35,143.48 102.35,143.48 102.35,143.47 C102.36,134.86 109.24,127.77 117.89,127.56" id="Shape" fill="#B7B7B7"></path>
            <path d="M102.36,143.49 C102.36,143.53 102.36,143.56 102.36,143.6 C102.36,143.68 102.36,143.77 102.36,143.85 L102.36,143.87 C102.36,143.87 102.36,143.87 102.36,143.88 L102.36,241.83 C102.36,241.83 102.36,241.83 102.36,241.84 C102.36,241.91 102.36,241.98 102.36,242.06 C102.39,252.16 103.91,262.21 106.86,271.87 L106.86,271.87 L106.86,271.87 C107.71,274.76 108.73,277.56 109.83,280.36 L109.83,280.36 L109.83,280.36 L188.69,280.36 C190.7,280.36 192.69,279.96 194.55,279.17 L194.55,279.17 C195.33,277.32 195.74,275.33 195.74,273.31 L195.74,256.33 C195.68,264.88 188.76,271.8 180.21,271.86 L106.87,271.86 C103.9,262.12 102.38,251.99 102.37,241.81 L102.37,143.85 C102.36,143.73 102.36,143.61 102.36,143.49" id="Path" fill="#585EA9"></path>
            <path d="M195.73,127.56 L187.24,127.56 L187.24,256.33 C187.18,264.88 180.26,271.8 171.71,271.86 L106.86,271.86 C103.89,262.12 102.37,251.99 102.36,241.81 L102.36,143.85 C102.36,143.73 102.36,143.61 102.36,143.48 L102.36,143.48 C102.36,143.6 102.36,143.72 102.36,143.85 L102.36,241.81 C102.37,251.99 103.89,262.12 106.86,271.86 L180.2,271.86 C188.75,271.8 195.67,264.88 195.73,256.33 L195.73,127.56" id="Path" fill="#464B87"></path>
            <path d="M187.24,127.56 L117.89,127.56 C109.23,127.77 102.36,134.86 102.35,143.47 C102.35,143.48 102.35,143.48 102.35,143.49 C102.36,134.86 109.24,127.77 117.91,127.56 L187.24,127.56" id="Path" fill="#757575"></path>
            <path d="M187.24,127.56 L117.92,127.56 C109.25,127.77 102.36,134.87 102.36,143.49 C102.36,143.61 102.36,143.73 102.36,143.86 L102.36,241.82 C102.37,252 103.89,262.13 106.86,271.87 L171.71,271.87 C180.26,271.81 187.18,264.89 187.24,256.34 L187.24,127.56" id="Path" fill="#383C6C"></path>
            <path d="M191.25,109.89 C192.35,110.07 193.45,110.21 194.56,110.31 L194.56,110.31 C193.45,110.22 192.35,110.08 191.25,109.89 C191.25,109.9 191.25,109.9 191.25,109.89" id="Path" fill="#E5E5E5"></path>
            <path d="M188.69,68.14 L146.33,68.14 C146.97,71.05 147.87,73.89 149.05,76.63 C155.86,92.93 170.06,104.98 187.25,109.06 C188.57,109.4 189.91,109.68 191.25,109.9 C191.25,109.9 191.25,109.9 191.25,109.9 C189.9,109.68 188.57,109.4 187.24,109.06 C179.18,107.15 171.78,103.49 165.49,98.46 C158.36,92.76 152.66,85.3 149.04,76.64 L171.7,76.64 C171.71,76.64 171.72,76.64 171.72,76.64 L180.18,76.64 C188.75,76.67 195.68,83.61 195.71,92.17 L195.71,110.42 L195.71,110.42 C195.32,110.39 194.93,110.36 194.54,110.33 L194.54,110.33 C194.93,110.37 195.32,110.4 195.71,110.42 C197.15,110.51 198.51,110.59 199.95,110.59 C201.39,110.59 202.75,110.5 204.19,110.42 L204.19,83.68 C204.19,75.11 197.25,68.17 188.69,68.14" id="Path" fill="#6E76D3"></path>
            <path d="M191.25,109.9 C192.35,110.08 193.45,110.22 194.56,110.32 C193.45,110.21 192.34,110.07 191.25,109.9" id="Path" fill="#929292"></path>
            <path d="M180.2,76.63 L171.74,76.63 C180.29,76.68 187.22,83.61 187.25,92.16 L187.25,109.05 C179.19,107.14 171.79,103.48 165.5,98.45 C171.79,103.48 179.19,107.14 187.25,109.05 C188.57,109.39 189.91,109.67 191.26,109.89 C192.35,110.06 193.45,110.2 194.57,110.31 C194.96,110.35 195.35,110.38 195.74,110.4 L195.74,92.15 C195.7,83.6 188.76,76.66 180.2,76.63" id="Path" fill="#464B87"></path>
            <path d="M171.71,76.63 L149.05,76.63 C152.67,85.29 158.37,92.75 165.5,98.45 C158.37,92.75 152.67,85.29 149.05,76.63 L149.05,76.63 L149.05,76.63 L171.74,76.63 C171.73,76.63 171.72,76.63 171.71,76.63" id="Path" fill="#585EA9"></path>
            <path d="M171.74,76.63 L149.05,76.63 C152.67,85.29 158.37,92.75 165.5,98.45 C171.79,103.48 179.19,107.14 187.25,109.05 L187.25,92.16 C187.21,83.6 180.29,76.67 171.74,76.63" id="Path" fill="#383C6C"></path>
            <path d="M16.06,76.63 L171.69,76.63 C180.28,76.63 187.25,83.6 187.25,92.19 L187.25,247.82 C187.25,256.41 180.28,263.38 171.69,263.38 L16.06,263.38 C7.47,263.38 0.5,256.41 0.5,247.82 L0.5,92.19 C0.5,83.59 7.47,76.63 16.06,76.63 Z" id="Path" fill="url(#linearGradient-1)"></path>
            <polygon id="Path" fill="#FFFFFF" points="134.82 135.86 103.71 135.86 103.71 220.57 83.89 220.57 83.89 135.86 52.92 135.86 52.92 119.43 134.82 119.43"></polygon>
        </g>
    </g>
</svg>